<svg xmlns="http://www.w3.org/2000/svg" width="16" height="16" viewBox="0 0 16 16">
  <g id="Icon" transform="translate(-379.548 -175.725)">
    <circle id="Ellipse_14" data-name="Ellipse 14" cx="8" cy="8" r="8" transform="translate(379.548 175.725)" fill="#fff700"/>
    <path id="Path_9680" data-name="Path 9680" d="M392.548,183.119v-4.751l-3.234,2.97-3.533-.085-3.234-2.962v4.823l.039,2.433a1.735,1.735,0,0,0,.265,1.281,6.24,6.24,0,0,0,.733,1.078,7.192,7.192,0,0,0,1.845,1.25c.1.047.2-2.342.3-2.3a5.228,5.228,0,0,0,1.995.62,4.713,4.713,0,0,0,1.854-.517c.126-.057.226,2.1.341,2.035a6.776,6.776,0,0,0,1.685-1.173c.181-.251.431-.625.647-.992a2.858,2.858,0,0,0,.293-1.281q0-1.215,0-2.429" fill="#2d2d2d"/>
    <path id="Path_9681" data-name="Path 9681" d="M421.263,315.445c-1.072-.093-1.925-.1-3-.2-.019,0-.336.126-.336-.545l-.042-.839c-.011-.1-.168-.8.336-.5h0l3.065,2.011a.04.04,0,0,1-.027.073" transform="translate(-33.787 -129.176)" fill="#fff"/>
    <path id="Path_9682" data-name="Path 9682" d="M503.778,315.445c1.072-.093,1.925-.1,3-.2.019,0,.336.126.336-.545l.042-.839c.011-.1.168-.8-.336-.5h0l-3.065,2.011a.04.04,0,0,0,.027.073" transform="translate(-115.961 -129.176)" fill="#fff"/>
  </g>
</svg>
