<svg xmlns="http://www.w3.org/2000/svg" width="100" height="100" viewBox="0 0 100 100">
  <path id="linkedin-brands" d="M92.857,32H7.121A7.174,7.174,0,0,0,0,39.21v85.58A7.174,7.174,0,0,0,7.121,132H92.857A7.193,7.193,0,0,0,100,124.79V39.21A7.193,7.193,0,0,0,92.857,32ZM30.223,117.714H15.4V69.991H30.246v47.723ZM22.813,63.473a8.594,8.594,0,1,1,8.594-8.594A8.6,8.6,0,0,1,22.813,63.473Zm62.969,54.241H70.96V94.5c0-5.536-.112-12.656-7.7-12.656-7.723,0-8.906,6.027-8.906,12.254v23.616H39.531V69.991H53.75v6.518h.2c1.987-3.75,6.83-7.7,14.04-7.7,15,0,17.79,9.888,17.79,22.746Z" transform="translate(0 -32)" fill="#fff"/>
</svg>
