<?xml version='1.0' encoding='utf-8'?>
<svg xmlns="http://www.w3.org/2000/svg" xmlns:xlink="http://www.w3.org/1999/xlink" width="921px" height="1654px" clip-rule="evenodd" fill-rule="evenodd" image-rendering="optimizeQuality" shape-rendering="geometricPrecision" text-rendering="geometricPrecision" viewBox="0 0 921 1653">
 <defs>
  <style type="text/css">
    .fil7 {fill:#5B5B5B}
    .fil6 {fill:#FEFEFE}
    .fil0 {fill:black}
    .fil2 {fill:url(#b)}
    .fil4 {fill:url(#e)}
    .fil1 {fill:url(#d)}
    .fil5 {fill:url(#a)}
    .fil3 {fill:url(#c)}
  </style>
  <linearGradient id="b" x1="45.965" x2="422.26" y1="128.27" y2="128.27" gradientUnits="userSpaceOnUse">
   <stop offset="0"/>
   <stop stop-color="#434242" offset="1"/>
  </linearGradient>
  <linearGradient id="e" x1="48.122" x2="447.06" y1="1484.3" y2="1484.3" gradientUnits="userSpaceOnUse" xlink:href="#b">
  </linearGradient>
  <linearGradient id="d" x1="460.5" x2="460.5" y1="199.59" y2="1453.2" gradientUnits="userSpaceOnUse">
   <stop stop-color="#FEFEFE" offset="0"/>
   <stop stop-color="#D9DADA" offset="1"/>
  </linearGradient>
  <linearGradient id="a" x1="507.41" x2="839.26" y1="1481.1" y2="1481.1" gradientUnits="userSpaceOnUse">
   <stop stop-color="#434242" offset="0"/>
   <stop offset="1"/>
  </linearGradient>
  <linearGradient id="c" x1="483.32" x2="796.85" y1="118.68" y2="118.68" gradientUnits="userSpaceOnUse" xlink:href="#a">
  </linearGradient>
 </defs>
  <rect class="fil0" width="921" height="1653" rx="122" ry="122"/>
  <rect class="fil1" x="2" y="2" width="917" height="1650" rx="121" ry="121"/>
  <path class="fil2" d="m129 10h328v809h-447v-689c0-66 54-119 119-119z"/>
  <path class="fil3" d="m456 10h335c66 0 120 54 120 120v689h-454v-809z"/>
  <path class="fil4" d="m10 817h446v827h-324c-67 0-122-55-122-122v-705z"/>
  <path class="fil5" d="m454 808h457v716c0 66-54 120-120 120h-337v-836z"/>
  <rect class="fil6" x="61" y="161" width="799" height="1330"/>
  <rect class="fil7" x="372" y="67" width="174" height="18" rx="24" ry="24"/>
  <path class="fil0" d="m377 66h159c4 0 7 3 7 7s-3 7-7 7h-159c-4 0-7-3-7-7s3-7 7-7z"/>
</svg>